<svg xmlns="http://www.w3.org/2000/svg" xmlns:xlink="http://www.w3.org/1999/xlink" xmlns:lucid="lucid" width="5488" height="11504"><g transform="translate(-9952 12704)" lucid:page-tab-id="9IdMXgtSGFmVI"><path d="M10303.3-9563.46h1311.55v1049.74H10303.3z" fill="#fff" fill-opacity="0"/><path d="M10959.07-9563.46l655.78 524.87-655.78 524.88-655.77-524.87z" fill="#da0063" fill-opacity=".4"/><use xlink:href="#a" transform="matrix(1,0,0,1,10303.29476213269,-9563.457487271167) translate(368.8281724444445 546.2959999999999)"/><use xlink:href="#b" transform="matrix(1,0,0,1,10303.29476213269,-9563.457487271167) translate(718.2996733333333 546.2959999999999)"/><path d="M10191.63-10855.83h1534.3v448.05h-1534.3z" fill="#ffc500" fill-opacity=".4"/><use xlink:href="#c" transform="matrix(1,0,0,1,10211.630260280333,-10855.833850979805) translate(244.20763899999997 245.796)"/><use xlink:href="#d" transform="matrix(1,0,0,1,10211.630260280333,-10855.833850979805) translate(670.5154036666665 245.796)"/><path d="M12439.84-1817.76h895.88v448.05h-895.88z" fill="#fff" fill-opacity="0"/><path d="M12529.42-1817.76h716.72c11.88 0 23.3 2.27 34.28 6.82 10.98 4.55 20.66 11.02 29.06 19.42 8.4 8.4 14.88 18.1 19.42 29.08 4.55 10.97 6.82 22.4 6.82 34.3v268.82c0 11.88-2.27 23.3-6.82 34.3-4.54 10.97-11 20.66-19.42 29.06-8.4 8.4-18.08 14.88-29.06 19.43-10.98 4.54-22.4 6.82-34.28 6.82h-716.72c-11.88 0-23.3-2.3-34.28-6.83-10.98-4.55-20.66-11.03-29.06-19.43-8.4-8.4-14.88-18.1-19.42-29.07-4.55-10.98-6.82-22.4-6.82-34.3v-268.82c0-11.88 2.27-23.32 6.82-34.3 4.54-10.97 11-20.66 19.42-29.07 8.4-8.4 18.08-14.87 29.06-19.42 10.98-4.55 22.4-6.82 34.28-6.82z" fill="#414bb2" fill-opacity=".4"/><use xlink:href="#e" transform="matrix(1,0,0,1,12439.835662622005,-1817.761452780047) translate(306.04574433333335 245.796)"/><path d="M10338.2-7594.27h1241.5v572.42h-1241.5z" fill="#0ca789" fill-opacity=".4"/><use xlink:href="#f" transform="matrix(1,0,0,1,10358.190597129986,-7594.270110386889) translate(354.91629033333334 307.796)"/><use xlink:href="#g" transform="matrix(1,0,0,1,10358.190597129986,-7594.270110386889) translate(621.9148903333333 307.796)"/><path d="M10958.78-10405.77l.3 838.68" stroke="#313131" stroke-width="4" stroke-linejoin="round" fill="none"/><path d="M10960.75-10405.72h-3.95v-2.07h3.95z" stroke="#313131" stroke-width=".05" fill="#313131"/><path d="M10969.06-9584.78l-10 17.32-10-17.3" stroke="#313131" stroke-width="4" fill="none"/><path d="M10959.07-8511.7l-.12 913.8" stroke="#313131" stroke-width="4" stroke-linejoin="round" fill="none"/><path d="M10961.05-8511.66h-3.95v-2.06h3.95z" stroke="#313131" stroke-width=".05" fill="#313131"/><path d="M10968.95-7615.6l-10 17.33-10-17.32" stroke="#313131" stroke-width="4" fill="none"/><path d="M10956.63-8319.66v-4.77h4.76v4.76z" fill="#fff" fill-opacity="0"/><path d="M10959-8324.43c1.6 0 2.4.8 2.4 2.38 0 1.6-.8 2.4-2.4 2.4-1.58 0-2.37-.8-2.37-2.4 0-1.58.8-2.38 2.38-2.38z" fill="#313131"/><path d="M10551.37-12183.75h895.9v448.05h-895.9z" fill="#fff" fill-opacity="0"/><path d="M10640.96-12183.75h716.7c11.9 0 23.32 2.27 34.3 6.82 10.97 4.55 20.66 11.02 29.06 19.43 8.4 8.4 14.87 18.1 19.42 29.07 4.54 10.98 6.82 22.4 6.82 34.3v268.82c0 11.87-2.28 23.3-6.82 34.28-4.55 10.98-11.02 20.67-19.42 29.07-8.4 8.4-18.1 14.88-29.07 19.43-10.97 4.55-22.4 6.82-34.28 6.82h-716.7c-11.9 0-23.32-2.27-34.3-6.82-10.97-4.55-20.66-11.02-29.06-19.43-8.4-8.4-14.87-18.1-19.4-29.07-4.56-10.98-6.83-22.4-6.83-34.3v-268.82c0-11.88 2.27-23.3 6.82-34.3 4.53-10.97 11-20.66 19.4-29.06 8.4-8.4 18.1-14.88 29.07-19.43 10.98-4.55 22.4-6.82 34.3-6.82z" fill="#414bb2" fill-opacity=".4"/><use xlink:href="#h" transform="matrix(1,0,0,1,10551.36877569789,-12183.749495896976) translate(335.41559033333334 245.796)"/><path d="M10966.15-11733.7l-7.34 874.23" stroke="#313131" stroke-width="4" stroke-linejoin="round" fill="none"/><path d="M10968.12-11733.62l-3.95-.04.02-2.04h3.94z" stroke="#313131" stroke-width=".05" fill="#313131"/><path d="M10968.95-10877.07l-10.14 17.24-9.84-17.4" stroke="#313131" stroke-width="4" fill="none"/><path d="M12541.03-9262.65h895.9v448.05h-895.9z" fill="#f24726" fill-opacity=".4"/><use xlink:href="#i" transform="matrix(1,0,0,1,12561.031413975172,-9262.652351399884) translate(205.94616433333334 245.796)"/><use xlink:href="#j" transform="matrix(1,0,0,1,12561.031413975172,-9262.652351399884) translate(413.6117421111111 245.796)"/><path d="M11616.86-9038.6l920.53-.03" stroke="#313131" stroke-width="4" stroke-linejoin="round" fill="none"/><path d="M11616.9-9036.6h-2.05v-3.97h2.06z" stroke="#313131" stroke-width=".05" fill="#313131"/><path d="M12519.7-9048.63l17.33 10-17.32 10" stroke="#313131" stroke-width="4" fill="none"/><path d="M12155.3-9041.02h4.77v4.77h-4.76z" fill="#fff" fill-opacity="0"/><path d="M12160.07-9038.64c0 1.6-.8 2.4-2.38 2.4-1.6 0-2.4-.8-2.4-2.4 0-1.58.8-2.38 2.4-2.38 1.58 0 2.37.8 2.37 2.38z" fill="#313131"/><path d="M12354.58-7573.35h1049.5v553.72h-1049.5z" fill="#0ca789" fill-opacity=".4"/><use xlink:href="#k" transform="matrix(1,0,0,1,12374.584080775805,-7573.349429268139) translate(197.06161466666669 298.296)"/><use xlink:href="#l" transform="matrix(1,0,0,1,12374.584080775805,-7573.349429268139) translate(499.0666977777778 298.296)"/><path d="M10959.1-8511.7l.46 21.45 1.35 21.58 2.1 19.98 2.75 18.6 3.32 17.43 3.84 16.38 4.33 15.5 4.78 14.7 5.22 14 5.64 13.43 6.06 12.9 6.5 12.42 6.95 12.04 7.42 11.68 7.9 11.4 8.46 11.12 9.04 10.92 9.67 10.74 10.38 10.6 11.17 10.48 12.05 10.4 13.05 10.34 14.2 10.32 15.53 10.3 17.06 10.33 18.88 10.37 21.02 10.42 23.6 10.5 26.77 10.6 30.72 10.66 35.75 10.78 42.4 10.86 51.57 10.92 65.12 10.95 87.78 10.97 138.95 11.37 595.6 32.82 87.78 10.98 65.12 10.95 51.57 10.9 42.4 10.87 35.76 10.77 30.72 10.68 26.77 10.6 23.6 10.5 21 10.4 18.88 10.38 17.07 10.32 15.52 10.3 14.2 10.32 13.06 10.35 12.05 10.38 11.17 10.5 10.38 10.58 9.67 10.74 9.03 10.92 8.46 11.14 7.9 11.4 7.42 11.68 6.95 12.03 6.5 12.44 6.07 12.9 5.64 13.42 5.2 14 4.8 14.7 4.3 15.5 3.85 16.38 3.32 17.42 2.74 18.6 2.1 19.98 1.34 21.58.4 19.84" stroke="#313131" stroke-width="4" stroke-linejoin="round" fill="none"/><path d="M10961.1-8511.7l-3.96.1-.05-2.12h3.95z" stroke="#313131" stroke-width=".05" fill="#313131"/><path d="M12888.88-7594.87l-9.64 17.52-10.35-17.1" stroke="#313131" stroke-width="4" fill="none"/><path d="M12287.57-6335.53h1202.66v727.9h-1202.66z" fill="#9510ac" fill-opacity=".4"/><use xlink:href="#m" transform="matrix(1,0,0,1,12307.56569008343,-6335.527103316737) translate(296.8498258888889 385.296)"/><use xlink:href="#n" transform="matrix(1,0,0,1,12307.56569008343,-6335.527103316737) translate(694.0844096666667 385.296)"/><path d="M12879.34-7018.63l9.3 664.6" stroke="#000" stroke-width="2" stroke-linejoin="round" fill="none"/><path d="M12880.3-7018.6h-1.94v-1.03h1.94z" stroke="#000" stroke-width=".05"/><path d="M12888.85-6338.76l-4.83-14.2 9.27-.13z" stroke="#000" stroke-width="2"/><path d="M12285.66-2942.6h1204.6v684.07h-1204.6z" fill="#fef445" fill-opacity=".4"/><use xlink:href="#o" transform="matrix(1,0,0,1,12305.662478187121,-2942.5991529008606) translate(143.53710572222224 364.722)"/><use xlink:href="#p" transform="matrix(1,0,0,1,12305.662478187121,-2942.5991529008606) translate(650.6042572222223 364.722)"/><path d="M12887.97-2256.53l-.2 435.13" stroke="#313131" stroke-width="4" stroke-linejoin="round" fill="none"/><path d="M12889.94-2256.48h-3.95v-2.05h3.94z" stroke="#313131" stroke-width=".05" fill="#313131"/><path d="M12897.8-1839.08l-10.02 17.32-10-17.33" stroke="#313131" stroke-width="4" fill="none"/><path d="M13920.66-5607.64h1204.6v684.07h-1204.6z" fill="#cee741" fill-opacity=".4"/><use xlink:href="#q" transform="matrix(1,0,0,1,13940.663641219493,-5607.634816003963) translate(163.8136004861111 364.722)"/><use xlink:href="#r" transform="matrix(1,0,0,1,13940.663641219493,-5607.634816003963) translate(413.01326895833336 364.722)"/><use xlink:href="#s" transform="matrix(1,0,0,1,13940.663641219493,-5607.634816003963) translate(567.7956717361111 364.722)"/><path d="M12893.35-3772.53l-5.26 811.43" stroke="#000" stroke-width="2" stroke-linejoin="round" fill="none"/><path d="M12893.36-3776.53v4.02h-.98l.02-4.04z" stroke="#000" stroke-width=".05"/><path d="M12888-2945.84l-4.56-14.3 9.27.07z" stroke="#000" stroke-width="2"/><path d="M13510.74-4351.5l116.2-2.4 103.23-6.44 89.8-9.4 77.84-11.45 67.57-12.85 58.85-13.78 51.5-14.35 45.27-14.7 40.03-14.87 35.6-14.95 31.8-14.95 28.52-14.9 25.73-14.85 23.3-14.78 21.17-14.7 19.32-14.66 17.67-14.6 16.2-14.6 14.93-14.6 13.75-14.65 12.7-14.7 11.73-14.8 10.85-14.94 10.05-15.1 9.28-15.34 8.57-15.6 7.9-15.9 7.24-16.26 6.6-16.7 5.98-17.16 5.35-17.73 4.72-18.36 4.04-19.08 3.37-19.9 2.64-20.86 1.84-21.92.7-16.7" stroke="#000" stroke-width="2" stroke-linejoin="round" fill="none"/><path d="M13510.8-4350.53l-1.07.02v-1.96l1.02-.02z" stroke="#000" stroke-width=".05"/><path d="M14522.9-4920.33l4.33 14.36-9.27-.2z" stroke="#000" stroke-width="2"/><path d="M14522.95-5608.65l-.37-17.9-1.1-17.47-1.7-16.2-2.23-15.12-2.7-14.18-3.13-13.36-3.53-12.64-3.9-12.02-4.27-11.46-4.62-10.98-4.96-10.56-5.32-10.18-5.7-9.85-6.07-9.58-6.48-9.32-6.9-9.1-7.4-8.94-7.9-8.78-8.46-8.64-9.08-8.53-9.8-8.45-10.56-8.38-11.47-8.33-12.5-8.3-13.68-8.28-15.04-8.26-16.64-8.26-18.55-8.24-20.83-8.24-23.6-8.2-27.03-8.15-31.35-8.03-36.96-7.84-44.5-7.5-55.18-6.9-71.85-5.97-103.3-4.17-395.57 3.2" stroke="#000" stroke-width="2" stroke-linejoin="round" fill="none"/><path d="M14523.94-5607.64h-1.95l-.03-1 1.95-.05z" stroke="#000" stroke-width=".05"/><path d="M13493.47-5971.6l14.22-4.76.07 9.27z" stroke="#000" stroke-width="2"/><path d="M12268.22-4923.53h1241.5v1144.08h-1241.5z" fill="#fff" fill-opacity="0"/><path d="M12888.97-4923.53l620.76 572.04-620.76 572.05-620.75-572.04z" fill="#e6e6e6" fill-opacity=".4"/><use xlink:href="#t" transform="matrix(1,0,0,1,12268.21564575797,-4923.526710466482) translate(128.34999836111115 596.5740000000001)"/><use xlink:href="#u" transform="matrix(1,0,0,1,12268.21564575797,-4923.526710466482) translate(255.78839225000004 596.5740000000001)"/><use xlink:href="#v" transform="matrix(1,0,0,1,12268.21564575797,-4923.526710466482) translate(543.8662352777778 596.5740000000001)"/><path d="M12888.97-4924.53l-.07-664.6" stroke="#000" stroke-width="2" stroke-linejoin="round" fill="none"/><path d="M12889.95-4923.53h-1.95v-1.03h1.95z" stroke="#000" stroke-width=".05"/><path d="M12888.9-5604.4l4.64 14.27h-9.28z" stroke="#000" stroke-width="2"/><g><path d="M12819.28-3185.57l-.12-593.3h74.2l.12 593.3z" fill="none"/></g><g><use xlink:href="#w" transform="matrix(-0.00020367320369520076,-0.9999999792586128,0.9999999792586128,-0.00020367320369520076,12819.284442105183,-3185.568397553885) translate(0 49.864000000000004)"/><use xlink:href="#x" transform="matrix(-0.00020367320369520076,-0.9999999792586128,0.9999999792586128,-0.00020367320369520076,12819.284442105183,-3185.568397553885) translate(201.4260453333333 49.864000000000004)"/><use xlink:href="#y" transform="matrix(-0.00020367320369520076,-0.9999999792586128,0.9999999792586128,-0.00020367320369520076,12819.284442105183,-3185.568397553885) translate(240.81203098333327 49.864000000000004)"/></g><path d="M12148-9063.24h22.26v20H12148z" fill="none"/><g><use xlink:href="#z" transform="matrix(1,0,0,1,12148.008934270596,-9063.23834493367) translate(0 13.832)"/></g><g><path d="M10931.74-8303.45v-28.48h20v28.48z" fill="none"/></g><g><use xlink:href="#A" transform="matrix(-0.00020367320369520076,-0.9999999792586128,0.9999999792586128,-0.00020367320369520076,10931.738841041662,-8303.448912162072) translate(0 13.834)"/></g><g><path d="M13764.47-4525.06l532.36-95.77 13.13 73-532.36 95.77z" fill="none"/></g><g><use xlink:href="#B" transform="matrix(0.9841997840095373,-0.17706152929301194,0.17706152929301194,0.9841997840095373,13764.46721502067,-4525.057470278794) translate(0 49.86)"/><use xlink:href="#C" transform="matrix(0.9841997840095373,-0.17706152929301194,0.17706152929301194,0.9841997840095373,13764.46721502067,-4525.057470278794) translate(201.36087999999998 49.86)"/><use xlink:href="#D" transform="matrix(0.9841997840095373,-0.17706152929301194,0.17706152929301194,0.9841997840095373,13764.46721502067,-4525.057470278794) translate(240.73412349999998 49.86)"/></g><defs><path fill="#fff" d="M212-179c-10-28-35-45-73-45-59 0-87 40-87 99 0 60 29 101 89 101 43 0 62-24 78-52l27 14C228-24 195 4 139 4 59 4 22-46 18-125c-6-104 99-153 187-111 19 9 31 26 39 46" id="E"/><path fill="#fff" d="M114-163C36-179 61-72 57 0H25l-1-190h30c1 12-1 29 2 39 6-27 23-49 58-41v29" id="F"/><path fill="#fff" d="M100-194c63 0 86 42 84 106H49c0 40 14 67 53 68 26 1 43-12 49-29l28 8c-11 28-37 45-77 45C44 4 14-33 15-96c1-61 26-98 85-98zm52 81c6-60-76-77-97-28-3 7-6 17-6 28h103" id="G"/><path fill="#fff" d="M141-36C126-15 110 5 73 4 37 3 15-17 15-53c-1-64 63-63 125-63 3-35-9-54-41-54-24 1-41 7-42 31l-33-3c5-37 33-52 76-52 45 0 72 20 72 64v82c-1 20 7 32 28 27v20c-31 9-61-2-59-35zM48-53c0 20 12 33 32 33 41-3 63-29 60-74-43 2-92-5-92 41" id="H"/><path fill="#fff" d="M59-47c-2 24 18 29 38 22v24C64 9 27 4 27-40v-127H5v-23h24l9-43h21v43h35v23H59v120" id="I"/><g id="a"><use transform="matrix(0.2966651111111111,0,0,0.2957777777777778,0,0)" xlink:href="#E"/><use transform="matrix(0.2966651111111111,0,0,0.2957777777777778,76.83626377777779,0)" xlink:href="#F"/><use transform="matrix(0.2966651111111111,0,0,0.2957777777777778,112.139412,0)" xlink:href="#G"/><use transform="matrix(0.2966651111111111,0,0,0.2957777777777778,171.4724342222222,0)" xlink:href="#H"/><use transform="matrix(0.2966651111111111,0,0,0.2957777777777778,230.80545644444442,0)" xlink:href="#I"/><use transform="matrix(0.2966651111111111,0,0,0.2957777777777778,260.4719675555555,0)" xlink:href="#G"/></g><path fill="#fff" d="M232-93c-1 65-40 97-104 97C67 4 28-28 28-90v-158h33c8 89-33 224 67 224 102 0 64-133 71-224h33v155" id="J"/><path fill="#fff" d="M135-143c-3-34-86-38-87 0 15 53 115 12 119 90S17 21 10-45l28-5c4 36 97 45 98 0-10-56-113-15-118-90-4-57 82-63 122-42 12 7 21 19 24 35" id="K"/><g id="b"><use transform="matrix(0.2966651111111111,0,0,0.2957777777777778,0,0)" xlink:href="#J"/><use transform="matrix(0.2966651111111111,0,0,0.2957777777777778,76.83626377777779,0)" xlink:href="#K"/><use transform="matrix(0.2966651111111111,0,0,0.2957777777777778,130.23598377777776,0)" xlink:href="#G"/><use transform="matrix(0.2966651111111111,0,0,0.2957777777777778,189.56900599999997,0)" xlink:href="#F"/></g><path fill="#040135" d="M233-177c-1 41-23 64-60 70L243 0h-38l-65-103H63V0H30v-248c88 3 205-21 203 71zM63-129c60-2 137 13 137-47 0-61-80-42-137-45v92" id="L"/><path fill="#040135" d="M84 4C-5 8 30-112 23-190h32v120c0 31 7 50 39 49 72-2 45-101 50-169h31l1 190h-30c-1-10 1-25-2-33-11 22-28 36-60 37" id="M"/><path fill="#040135" d="M117-194c89-4 53 116 60 194h-32v-121c0-31-8-49-39-48C34-167 62-67 57 0H25l-1-190h30c1 10-1 24 2 32 11-22 29-35 61-36" id="N"/><path fill="#040135" d="M59-47c-2 24 18 29 38 22v24C64 9 27 4 27-40v-127H5v-23h24l9-43h21v43h35v23H59v120" id="O"/><path fill="#040135" d="M24-231v-30h32v30H24zM24 0v-190h32V0H24" id="P"/><path fill="#040135" d="M210-169c-67 3-38 105-44 169h-31v-121c0-29-5-50-35-48C34-165 62-65 56 0H25l-1-190h30c1 10-1 24 2 32 10-44 99-50 107 0 11-21 27-35 58-36 85-2 47 119 55 194h-31v-121c0-29-5-49-35-48" id="Q"/><path fill="#040135" d="M100-194c63 0 86 42 84 106H49c0 40 14 67 53 68 26 1 43-12 49-29l28 8c-11 28-37 45-77 45C44 4 14-33 15-96c1-61 26-98 85-98zm52 81c6-60-76-77-97-28-3 7-6 17-6 28h103" id="R"/><g id="c"><use transform="matrix(0.2966651111111111,0,0,0.2957777777777778,0,0)" xlink:href="#L"/><use transform="matrix(0.2966651111111111,0,0,0.2957777777777778,76.83626377777779,0)" xlink:href="#M"/><use transform="matrix(0.2966651111111111,0,0,0.2957777777777778,136.169286,0)" xlink:href="#N"/><use transform="matrix(0.2966651111111111,0,0,0.2957777777777778,195.5023082222222,0)" xlink:href="#O"/><use transform="matrix(0.2966651111111111,0,0,0.2957777777777778,225.16881933333335,0)" xlink:href="#P"/><use transform="matrix(0.2966651111111111,0,0,0.2957777777777778,248.6053631111111,0)" xlink:href="#Q"/><use transform="matrix(0.2966651111111111,0,0,0.2957777777777778,337.3082313333333,0)" xlink:href="#R"/></g><path fill="#040135" d="M30-248c87 1 191-15 191 75 0 78-77 80-158 76V0H30v-248zm33 125c57 0 124 11 124-50 0-59-68-47-124-48v98" id="S"/><path fill="#040135" d="M114-163C36-179 61-72 57 0H25l-1-190h30c1 12-1 29 2 39 6-27 23-49 58-41v29" id="T"/><path fill="#040135" d="M135-143c-3-34-86-38-87 0 15 53 115 12 119 90S17 21 10-45l28-5c4 36 97 45 98 0-10-56-113-15-118-90-4-57 82-63 122-42 12 7 21 19 24 35" id="U"/><path fill="#040135" d="M100-194c62-1 85 37 85 99 1 63-27 99-86 99S16-35 15-95c0-66 28-99 85-99zM99-20c44 1 53-31 53-75 0-43-8-75-51-75s-53 32-53 75 10 74 51 75" id="V"/><g id="d"><use transform="matrix(0.2966651111111111,0,0,0.2957777777777778,0,0)" xlink:href="#S"/><use transform="matrix(0.2966651111111111,0,0,0.2957777777777778,71.19962666666666,0)" xlink:href="#R"/><use transform="matrix(0.2966651111111111,0,0,0.2957777777777778,130.53264888888887,0)" xlink:href="#T"/><use transform="matrix(0.2966651111111111,0,0,0.2957777777777778,165.8357971111111,0)" xlink:href="#Q"/><use transform="matrix(0.2966651111111111,0,0,0.2957777777777778,254.5386653333333,0)" xlink:href="#P"/><use transform="matrix(0.2966651111111111,0,0,0.2957777777777778,277.9752091111111,0)" xlink:href="#U"/><use transform="matrix(0.2966651111111111,0,0,0.2957777777777778,331.3749291111111,0)" xlink:href="#U"/><use transform="matrix(0.2966651111111111,0,0,0.2957777777777778,384.7746491111111,0)" xlink:href="#P"/><use transform="matrix(0.2966651111111111,0,0,0.2957777777777778,408.2111928888889,0)" xlink:href="#V"/><use transform="matrix(0.2966651111111111,0,0,0.2957777777777778,467.5442151111111,0)" xlink:href="#N"/><use transform="matrix(0.2966651111111111,0,0,0.2957777777777778,526.8772373333334,0)" xlink:href="#U"/></g><path fill="#fff" d="M63-220v92h138v28H63V0H30v-248h175v28H63" id="W"/><path fill="#fff" d="M24-231v-30h32v30H24zM24 0v-190h32V0H24" id="X"/><path fill="#fff" d="M117-194c89-4 53 116 60 194h-32v-121c0-31-8-49-39-48C34-167 62-67 57 0H25l-1-190h30c1 10-1 24 2 32 11-22 29-35 61-36" id="Y"/><path fill="#fff" d="M106-169C34-169 62-67 57 0H25v-261h32l-1 103c12-21 28-36 61-36 89 0 53 116 60 194h-32v-121c2-32-8-49-39-48" id="Z"/><g id="e"><use transform="matrix(0.2966651111111111,0,0,0.2957777777777778,0,0)" xlink:href="#W"/><use transform="matrix(0.2966651111111111,0,0,0.2957777777777778,64.96965933333333,0)" xlink:href="#X"/><use transform="matrix(0.2966651111111111,0,0,0.2957777777777778,88.40620311111111,0)" xlink:href="#Y"/><use transform="matrix(0.2966651111111111,0,0,0.2957777777777778,147.7392253333333,0)" xlink:href="#X"/><use transform="matrix(0.2966651111111111,0,0,0.2957777777777778,171.1757691111111,0)" xlink:href="#K"/><use transform="matrix(0.2966651111111111,0,0,0.2957777777777778,224.5754891111111,0)" xlink:href="#Z"/></g><path fill="#040135" d="M185-189c-5-48-123-54-124 2 14 75 158 14 163 119 3 78-121 87-175 55-17-10-28-26-33-46l33-7c5 56 141 63 141-1 0-78-155-14-162-118-5-82 145-84 179-34 5 7 8 16 11 25" id="aa"/><path fill="#040135" d="M179-190L93 31C79 59 56 82 12 73V49c39 6 53-20 64-50L1-190h34L92-34l54-156h33" id="ab"/><path fill="#040135" d="M96-169c-40 0-48 33-48 73s9 75 48 75c24 0 41-14 43-38l32 2c-6 37-31 61-74 61-59 0-76-41-82-99-10-93 101-131 147-64 4 7 5 14 7 22l-32 3c-4-21-16-35-41-35" id="ac"/><g id="f"><use transform="matrix(0.2966651111111111,0,0,0.2957777777777778,0,0)" xlink:href="#aa"/><use transform="matrix(0.2966651111111111,0,0,0.2957777777777778,71.19962666666666,0)" xlink:href="#ab"/><use transform="matrix(0.2966651111111111,0,0,0.2957777777777778,124.59934666666666,0)" xlink:href="#N"/><use transform="matrix(0.2966651111111111,0,0,0.2957777777777778,183.93236888888887,0)" xlink:href="#ac"/></g><path fill="#040135" d="M30-248c118-7 216 8 213 122C240-48 200 0 122 0H30v-248zM63-27c89 8 146-16 146-99s-60-101-146-95v194" id="ad"/><path fill="#040135" d="M141-36C126-15 110 5 73 4 37 3 15-17 15-53c-1-64 63-63 125-63 3-35-9-54-41-54-24 1-41 7-42 31l-33-3c5-37 33-52 76-52 45 0 72 20 72 64v82c-1 20 7 32 28 27v20c-31 9-61-2-59-35zM48-53c0 20 12 33 32 33 41-3 63-29 60-74-43 2-92-5-92 41" id="ae"/><g id="g"><use transform="matrix(0.2966651111111111,0,0,0.2957777777777778,0,0)" xlink:href="#ad"/><use transform="matrix(0.2966651111111111,0,0,0.2957777777777778,76.83626377777779,0)" xlink:href="#ae"/><use transform="matrix(0.2966651111111111,0,0,0.2957777777777778,136.169286,0)" xlink:href="#O"/><use transform="matrix(0.2966651111111111,0,0,0.2957777777777778,165.8357971111111,0)" xlink:href="#ae"/></g><path fill="#fff" d="M185-189c-5-48-123-54-124 2 14 75 158 14 163 119 3 78-121 87-175 55-17-10-28-26-33-46l33-7c5 56 141 63 141-1 0-78-155-14-162-118-5-82 145-84 179-34 5 7 8 16 11 25" id="af"/><g id="h"><use transform="matrix(0.2966651111111111,0,0,0.2957777777777778,0,0)" xlink:href="#af"/><use transform="matrix(0.2966651111111111,0,0,0.2957777777777778,71.19962666666666,0)" xlink:href="#I"/><use transform="matrix(0.2966651111111111,0,0,0.2957777777777778,100.86613777777777,0)" xlink:href="#H"/><use transform="matrix(0.2966651111111111,0,0,0.2957777777777778,160.19915999999998,0)" xlink:href="#F"/><use transform="matrix(0.2966651111111111,0,0,0.2957777777777778,195.5023082222222,0)" xlink:href="#I"/></g><path fill="#040135" d="M30 0v-248h33v221h125V0H30" id="ag"/><path fill="#040135" d="M177-190C167-65 218 103 67 71c-23-6-38-20-44-43l32-5c15 47 100 32 89-28v-30C133-14 115 1 83 1 29 1 15-40 15-95c0-56 16-97 71-98 29-1 48 16 59 35 1-10 0-23 2-32h30zM94-22c36 0 50-32 50-73 0-42-14-75-50-75-39 0-46 34-46 75s6 73 46 73" id="ah"/><g id="i"><use transform="matrix(0.2966651111111111,0,0,0.2957777777777778,0,0)" xlink:href="#ag"/><use transform="matrix(0.2966651111111111,0,0,0.2957777777777778,59.33302222222222,0)" xlink:href="#V"/><use transform="matrix(0.2966651111111111,0,0,0.2957777777777778,118.66604444444444,0)" xlink:href="#ah"/></g><path fill="#040135" d="M30 0v-248h187v28H63v79h144v27H63v87h162V0H30" id="ai"/><g id="j"><use transform="matrix(0.2966651111111111,0,0,0.2957777777777778,0,0)" xlink:href="#ai"/><use transform="matrix(0.2966651111111111,0,0,0.2957777777777778,71.19962666666666,0)" xlink:href="#T"/><use transform="matrix(0.2966651111111111,0,0,0.2957777777777778,106.50277488888888,0)" xlink:href="#T"/><use transform="matrix(0.2966651111111111,0,0,0.2957777777777778,141.8059231111111,0)" xlink:href="#V"/><use transform="matrix(0.2966651111111111,0,0,0.2957777777777778,201.1389453333333,0)" xlink:href="#T"/></g><path fill="#040135" d="M190 0L58-211 59 0H30v-248h39L202-35l-2-213h31V0h-41" id="aj"/><path fill="#040135" d="M101-234c-31-9-42 10-38 44h38v23H63V0H32v-167H5v-23h27c-7-52 17-82 69-68v24" id="ak"/><g id="k"><use transform="matrix(0.2966651111111111,0,0,0.2957777777777778,0,0)" xlink:href="#aj"/><use transform="matrix(0.2966651111111111,0,0,0.2957777777777778,76.83626377777779,0)" xlink:href="#V"/><use transform="matrix(0.2966651111111111,0,0,0.2957777777777778,136.169286,0)" xlink:href="#O"/><use transform="matrix(0.2966651111111111,0,0,0.2957777777777778,165.8357971111111,0)" xlink:href="#P"/><use transform="matrix(0.2966651111111111,0,0,0.2957777777777778,189.2723408888889,0)" xlink:href="#ak"/><use transform="matrix(0.2966651111111111,0,0,0.2957777777777778,218.938852,0)" xlink:href="#ab"/></g><path fill="#040135" d="M108 0H70L1-190h34L89-25l56-165h34" id="al"/><g id="l"><use transform="matrix(0.2966651111111111,0,0,0.2957777777777778,0,0)" xlink:href="#aa"/><use transform="matrix(0.2966651111111111,0,0,0.2957777777777778,71.19962666666666,0)" xlink:href="#R"/><use transform="matrix(0.2966651111111111,0,0,0.2957777777777778,130.53264888888887,0)" xlink:href="#T"/><use transform="matrix(0.2966651111111111,0,0,0.2957777777777778,165.8357971111111,0)" xlink:href="#al"/><use transform="matrix(0.2966651111111111,0,0,0.2957777777777778,219.2355171111111,0)" xlink:href="#R"/><use transform="matrix(0.2966651111111111,0,0,0.2957777777777778,278.5685393333333,0)" xlink:href="#T"/></g><path fill="#040135" d="M33 0v-248h34V0H33" id="am"/><path fill="#040135" d="M106-169C34-169 62-67 57 0H25v-261h32l-1 103c12-21 28-36 61-36 89 0 53 116 60 194h-32v-121c2-32-8-49-39-48" id="an"/><g id="m"><use transform="matrix(0.2966651111111111,0,0,0.2957777777777778,0,0)" xlink:href="#am"/><use transform="matrix(0.2966651111111111,0,0,0.2957777777777778,29.66651111111111,0)" xlink:href="#N"/><use transform="matrix(0.2966651111111111,0,0,0.2957777777777778,88.99953333333333,0)" xlink:href="#U"/><use transform="matrix(0.2966651111111111,0,0,0.2957777777777778,142.39925333333332,0)" xlink:href="#P"/><use transform="matrix(0.2966651111111111,0,0,0.2957777777777778,165.8357971111111,0)" xlink:href="#ah"/><use transform="matrix(0.2966651111111111,0,0,0.2957777777777778,225.16881933333335,0)" xlink:href="#an"/><use transform="matrix(0.2966651111111111,0,0,0.2957777777777778,284.50184155555553,0)" xlink:href="#O"/><use transform="matrix(0.2966651111111111,0,0,0.2957777777777778,314.1683526666666,0)" xlink:href="#U"/></g><path fill="#040135" d="M205 0l-28-72H64L36 0H1l101-248h38L239 0h-34zm-38-99l-47-123c-12 45-31 82-46 123h93" id="ao"/><g id="n"><use transform="matrix(0.2966651111111111,0,0,0.2957777777777778,0,0)" xlink:href="#ao"/><use transform="matrix(0.2966651111111111,0,0,0.2957777777777778,71.19962666666666,0)" xlink:href="#S"/><use transform="matrix(0.2966651111111111,0,0,0.2957777777777778,142.39925333333332,0)" xlink:href="#am"/></g><path fill="#040135" d="M212-179c-10-28-35-45-73-45-59 0-87 40-87 99 0 60 29 101 89 101 43 0 62-24 78-52l27 14C228-24 195 4 139 4 59 4 22-46 18-125c-6-104 99-153 187-111 19 9 31 26 39 46" id="ap"/><g id="o"><use transform="matrix(0.30956480555555554,0,0,0.3086388888888889,0,0)" xlink:href="#ap"/><use transform="matrix(0.30956480555555554,0,0,0.3086388888888889,80.17728463888889,0)" xlink:href="#V"/><use transform="matrix(0.30956480555555554,0,0,0.3086388888888889,142.09024575,0)" xlink:href="#N"/><use transform="matrix(0.30956480555555554,0,0,0.3086388888888889,204.00320686111112,0)" xlink:href="#U"/><use transform="matrix(0.30956480555555554,0,0,0.3086388888888889,259.7248718611111,0)" xlink:href="#M"/><use transform="matrix(0.30956480555555554,0,0,0.3086388888888889,321.6378329722222,0)" xlink:href="#Q"/><use transform="matrix(0.30956480555555554,0,0,0.3086388888888889,414.1977098333333,0)" xlink:href="#R"/></g><path fill="#040135" d="M24 0v-261h32V0H24" id="aq"/><g id="p"><use transform="matrix(0.30956480555555554,0,0,0.3086388888888889,0,0)" xlink:href="#L"/><use transform="matrix(0.30956480555555554,0,0,0.3086388888888889,80.17728463888889,0)" xlink:href="#R"/><use transform="matrix(0.30956480555555554,0,0,0.3086388888888889,142.09024575,0)" xlink:href="#U"/><use transform="matrix(0.30956480555555554,0,0,0.3086388888888889,197.81191075,0)" xlink:href="#M"/><use transform="matrix(0.30956480555555554,0,0,0.3086388888888889,259.7248718611111,0)" xlink:href="#aq"/><use transform="matrix(0.30956480555555554,0,0,0.3086388888888889,284.1804915,0)" xlink:href="#O"/><use transform="matrix(0.30956480555555554,0,0,0.3086388888888889,315.1369720555556,0)" xlink:href="#U"/></g><path fill="#040135" d="M266 0h-40l-56-210L115 0H75L2-248h35L96-30l15-64 43-154h32l59 218 59-218h35" id="ar"/><g id="q"><use transform="matrix(0.30956480555555554,0,0,0.3086388888888889,0,0)" xlink:href="#ar"/><use transform="matrix(0.30956480555555554,0,0,0.3086388888888889,100.91812661111112,0)" xlink:href="#ae"/><use transform="matrix(0.30956480555555554,0,0,0.3086388888888889,162.83108772222224,0)" xlink:href="#P"/><use transform="matrix(0.30956480555555554,0,0,0.3086388888888889,187.28670736111113,0)" xlink:href="#O"/></g><path fill="#040135" d="M27 0v-27h64v-190l-56 39v-29l58-41h29v221h61V0H27" id="as"/><path fill="#040135" d="M101-251c68 0 85 55 85 127S166 4 100 4C33 4 14-52 14-124c0-73 17-127 87-127zm-1 229c47 0 54-49 54-102s-4-102-53-102c-51 0-55 48-55 102 0 53 5 102 54 102" id="at"/><g id="r"><use transform="matrix(0.30956480555555554,0,0,0.3086388888888889,0,0)" xlink:href="#as"/><use transform="matrix(0.30956480555555554,0,0,0.3086388888888889,61.912961111111116,0)" xlink:href="#at"/></g><path fill="#040135" d="M85-194c31 0 48 13 60 33l-1-100h32l1 261h-30c-2-10 0-23-3-31C134-8 116 4 85 4 32 4 16-35 15-94c0-66 23-100 70-100zm9 24c-40 0-46 34-46 75 0 40 6 74 45 74 42 0 51-32 51-76 0-42-9-74-50-73" id="au"/><g id="s"><use transform="matrix(0.30956480555555554,0,0,0.3086388888888889,0,0)" xlink:href="#aa"/><use transform="matrix(0.30956480555555554,0,0,0.3086388888888889,74.29555333333333,0)" xlink:href="#R"/><use transform="matrix(0.30956480555555554,0,0,0.3086388888888889,136.20851444444443,0)" xlink:href="#ac"/><use transform="matrix(0.30956480555555554,0,0,0.3086388888888889,191.93017944444443,0)" xlink:href="#V"/><use transform="matrix(0.30956480555555554,0,0,0.3086388888888889,253.84314055555555,0)" xlink:href="#N"/><use transform="matrix(0.30956480555555554,0,0,0.3086388888888889,315.75610166666667,0)" xlink:href="#au"/><use transform="matrix(0.30956480555555554,0,0,0.3086388888888889,377.66906277777775,0)" xlink:href="#U"/></g><g id="t"><use transform="matrix(0.33536419444444443,0,0,0.3343611111111111,0,0)" xlink:href="#am"/><use transform="matrix(0.33536419444444443,0,0,0.3343611111111111,33.53641944444444,0)" xlink:href="#U"/></g><g id="u"><use transform="matrix(0.33536419444444443,0,0,0.3343611111111111,0,0)" xlink:href="#ad"/><use transform="matrix(0.33536419444444443,0,0,0.3343611111111111,86.8593263611111,0)" xlink:href="#ae"/><use transform="matrix(0.33536419444444443,0,0,0.3343611111111111,153.93216524999997,0)" xlink:href="#O"/><use transform="matrix(0.33536419444444443,0,0,0.3343611111111111,187.46858469444442,0)" xlink:href="#ae"/></g><g id="v"><use transform="matrix(0.33536419444444443,0,0,0.3343611111111111,0,0)" xlink:href="#S"/><use transform="matrix(0.33536419444444443,0,0,0.3343611111111111,80.48740666666666,0)" xlink:href="#T"/><use transform="matrix(0.33536419444444443,0,0,0.3343611111111111,120.39574580555555,0)" xlink:href="#V"/><use transform="matrix(0.33536419444444443,0,0,0.3343611111111111,187.46858469444442,0)" xlink:href="#ac"/><use transform="matrix(0.33536419444444443,0,0,0.3343611111111111,247.8341396944444,0)" xlink:href="#R"/><use transform="matrix(0.33536419444444443,0,0,0.3343611111111111,314.9069785833333,0)" xlink:href="#U"/><use transform="matrix(0.33536419444444443,0,0,0.3343611111111111,375.27253358333326,0)" xlink:href="#U"/><use transform="matrix(0.33536419444444443,0,0,0.3343611111111111,435.63808858333323,0)" xlink:href="#R"/><use transform="matrix(0.33536419444444443,0,0,0.3343611111111111,502.71092747222207,0)" xlink:href="#au"/></g><path fill="#1a1a1a" d="M185-189c-5-48-123-54-124 2 14 75 158 14 163 119 3 78-121 87-175 55-17-10-28-26-33-46l33-7c5 56 141 63 141-1 0-78-155-14-162-118-5-82 145-84 179-34 5 7 8 16 11 25" id="av"/><path fill="#1a1a1a" d="M59-47c-2 24 18 29 38 22v24C64 9 27 4 27-40v-127H5v-23h24l9-43h21v43h35v23H59v120" id="aw"/><path fill="#1a1a1a" d="M141-36C126-15 110 5 73 4 37 3 15-17 15-53c-1-64 63-63 125-63 3-35-9-54-41-54-24 1-41 7-42 31l-33-3c5-37 33-52 76-52 45 0 72 20 72 64v82c-1 20 7 32 28 27v20c-31 9-61-2-59-35zM48-53c0 20 12 33 32 33 41-3 63-29 60-74-43 2-92-5-92 41" id="ax"/><path fill="#1a1a1a" d="M84 4C-5 8 30-112 23-190h32v120c0 31 7 50 39 49 72-2 45-101 50-169h31l1 190h-30c-1-10 1-25-2-33-11 22-28 36-60 37" id="ay"/><path fill="#1a1a1a" d="M135-143c-3-34-86-38-87 0 15 53 115 12 119 90S17 21 10-45l28-5c4 36 97 45 98 0-10-56-113-15-118-90-4-57 82-63 122-42 12 7 21 19 24 35" id="az"/><g id="w"><use transform="matrix(0.1798446833333333,0,0,0.17172222222222222,0,0)" xlink:href="#av"/><use transform="matrix(0.1798446833333333,0,0,0.17172222222222222,43.162724,0)" xlink:href="#aw"/><use transform="matrix(0.1798446833333333,0,0,0.17172222222222222,61.14719233333333,0)" xlink:href="#ax"/><use transform="matrix(0.1798446833333333,0,0,0.17172222222222222,97.116129,0)" xlink:href="#aw"/><use transform="matrix(0.1798446833333333,0,0,0.17172222222222222,115.10059733333333,0)" xlink:href="#ay"/><use transform="matrix(0.1798446833333333,0,0,0.17172222222222222,151.06953399999998,0)" xlink:href="#az"/></g><path fill="#1a1a1a" d="M16-82v-28h88v28H16" id="aA"/><use transform="matrix(0.1798446833333333,0,0,0.17172222222222222,0,0)" xlink:href="#aA" id="x"/><path fill="#1a1a1a" d="M212-179c-10-28-35-45-73-45-59 0-87 40-87 99 0 60 29 101 89 101 43 0 62-24 78-52l27 14C228-24 195 4 139 4 59 4 22-46 18-125c-6-104 99-153 187-111 19 9 31 26 39 46" id="aB"/><path fill="#1a1a1a" d="M100-194c62-1 85 37 85 99 1 63-27 99-86 99S16-35 15-95c0-66 28-99 85-99zM99-20c44 1 53-31 53-75 0-43-8-75-51-75s-53 32-53 75 10 74 51 75" id="aC"/><path fill="#1a1a1a" d="M210-169c-67 3-38 105-44 169h-31v-121c0-29-5-50-35-48C34-165 62-65 56 0H25l-1-190h30c1 10-1 24 2 32 10-44 99-50 107 0 11-21 27-35 58-36 85-2 47 119 55 194h-31v-121c0-29-5-49-35-48" id="aD"/><path fill="#1a1a1a" d="M115-194c55 1 70 41 70 98S169 2 115 4C84 4 66-9 55-30l1 105H24l-1-265h31l2 30c10-21 28-34 59-34zm-8 174c40 0 45-34 45-75s-6-73-45-74c-42 0-51 32-51 76 0 43 10 73 51 73" id="aE"/><path fill="#1a1a1a" d="M24 0v-261h32V0H24" id="aF"/><path fill="#1a1a1a" d="M100-194c63 0 86 42 84 106H49c0 40 14 67 53 68 26 1 43-12 49-29l28 8c-11 28-37 45-77 45C44 4 14-33 15-96c1-61 26-98 85-98zm52 81c6-60-76-77-97-28-3 7-6 17-6 28h103" id="aG"/><path fill="#1a1a1a" d="M85-194c31 0 48 13 60 33l-1-100h32l1 261h-30c-2-10 0-23-3-31C134-8 116 4 85 4 32 4 16-35 15-94c0-66 23-100 70-100zm9 24c-40 0-46 34-46 75 0 40 6 74 45 74 42 0 51-32 51-76 0-42-9-74-50-73" id="aH"/><g id="y"><use transform="matrix(0.1798446833333333,0,0,0.17172222222222222,0,0)" xlink:href="#aB"/><use transform="matrix(0.1798446833333333,0,0,0.17172222222222222,46.579772983333335,0)" xlink:href="#aC"/><use transform="matrix(0.1798446833333333,0,0,0.17172222222222222,82.54870964999999,0)" xlink:href="#aD"/><use transform="matrix(0.1798446833333333,0,0,0.17172222222222222,136.32226996666665,0)" xlink:href="#aE"/><use transform="matrix(0.1798446833333333,0,0,0.17172222222222222,172.29120663333333,0)" xlink:href="#aF"/><use transform="matrix(0.1798446833333333,0,0,0.17172222222222222,186.49893661666664,0)" xlink:href="#aG"/><use transform="matrix(0.1798446833333333,0,0,0.17172222222222222,222.46787328333338,0)" xlink:href="#aw"/><use transform="matrix(0.1798446833333333,0,0,0.17172222222222222,240.45234161666667,0)" xlink:href="#aG"/><use transform="matrix(0.1798446833333333,0,0,0.17172222222222222,276.4212782833333,0)" xlink:href="#aH"/></g><path fill="#050038" d="M190 0L58-211 59 0H30v-248h39L202-35l-2-213h31V0h-41" id="aI"/><path fill="#050038" d="M100-194c62-1 85 37 85 99 1 63-27 99-86 99S16-35 15-95c0-66 28-99 85-99zM99-20c44 1 53-31 53-75 0-43-8-75-51-75s-53 32-53 75 10 74 51 75" id="aJ"/><g id="z"><use transform="matrix(0.048466716666666666,0,0,0.04627777777777778,0,0)" xlink:href="#aI"/><use transform="matrix(0.048466716666666666,0,0,0.04627777777777778,12.552879616666667,0)" xlink:href="#aJ"/></g><path fill="#050038" d="M137-103V0h-34v-103L8-248h37l75 118 75-118h37" id="aK"/><path fill="#050038" d="M100-194c63 0 86 42 84 106H49c0 40 14 67 53 68 26 1 43-12 49-29l28 8c-11 28-37 45-77 45C44 4 14-33 15-96c1-61 26-98 85-98zm52 81c6-60-76-77-97-28-3 7-6 17-6 28h103" id="aL"/><path fill="#050038" d="M135-143c-3-34-86-38-87 0 15 53 115 12 119 90S17 21 10-45l28-5c4 36 97 45 98 0-10-56-113-15-118-90-4-57 82-63 122-42 12 7 21 19 24 35" id="aM"/><g id="A"><use transform="matrix(0.048495808333333335,0,0,0.04630555555555556,0,0)" xlink:href="#aK"/><use transform="matrix(0.048495808333333335,0,0,0.04630555555555556,10.038632325,0)" xlink:href="#aL"/><use transform="matrix(0.048495808333333335,0,0,0.04630555555555556,19.737793991666667,0)" xlink:href="#aM"/></g><g id="B"><use transform="matrix(0.1797865,0,0,0.17166666666666666,0,0)" xlink:href="#av"/><use transform="matrix(0.1797865,0,0,0.17166666666666666,43.148759999999996,0)" xlink:href="#aw"/><use transform="matrix(0.1797865,0,0,0.17166666666666666,61.12741,0)" xlink:href="#ax"/><use transform="matrix(0.1797865,0,0,0.17166666666666666,97.08471,0)" xlink:href="#aw"/><use transform="matrix(0.1797865,0,0,0.17166666666666666,115.06336,0)" xlink:href="#ay"/><use transform="matrix(0.1797865,0,0,0.17166666666666666,151.02066,0)" xlink:href="#az"/></g><use transform="matrix(0.1797865,0,0,0.17166666666666666,0,0)" xlink:href="#aA" id="C"/><path fill="#1a1a1a" d="M30-248c87 1 191-15 191 75 0 78-77 80-158 76V0H30v-248zm33 125c57 0 124 11 124-50 0-59-68-47-124-48v98" id="aN"/><path fill="#1a1a1a" d="M114-163C36-179 61-72 57 0H25l-1-190h30c1 12-1 29 2 39 6-27 23-49 58-41v29" id="aO"/><path fill="#1a1a1a" d="M177-190C167-65 218 103 67 71c-23-6-38-20-44-43l32-5c15 47 100 32 89-28v-30C133-14 115 1 83 1 29 1 15-40 15-95c0-56 16-97 71-98 29-1 48 16 59 35 1-10 0-23 2-32h30zM94-22c36 0 50-32 50-73 0-42-14-75-50-75-39 0-46 34-46 75s6 73 46 73" id="aP"/><g id="D"><use transform="matrix(0.1797865,0,0,0.17166666666666666,0,0)" xlink:href="#aN"/><use transform="matrix(0.1797865,0,0,0.17166666666666666,43.148759999999996,0)" xlink:href="#aO"/><use transform="matrix(0.1797865,0,0,0.17166666666666666,64.5433535,0)" xlink:href="#aC"/><use transform="matrix(0.1797865,0,0,0.17166666666666666,100.5006535,0)" xlink:href="#aP"/><use transform="matrix(0.1797865,0,0,0.17166666666666666,136.4579535,0)" xlink:href="#aO"/><use transform="matrix(0.1797865,0,0,0.17166666666666666,157.85254700000002,0)" xlink:href="#aG"/><use transform="matrix(0.1797865,0,0,0.17166666666666666,193.80984700000002,0)" xlink:href="#az"/><use transform="matrix(0.1797865,0,0,0.17166666666666666,226.171417,0)" xlink:href="#az"/></g></defs></g></svg>