<svg xmlns="http://www.w3.org/2000/svg" xmlns:xlink="http://www.w3.org/1999/xlink" xmlns:lucid="lucid" width="6635" height="3635"><g transform="translate(-18196 12675)" lucid:page-tab-id="9IdMXgtSGFmVI"><path d="M0-25439.1h26710.72V34.42H0z" fill="#ffffff"/><path d="M20109.37-12183.75h1175.24v1145.68h-1175.23z" fill="#24ca7a" fill-opacity=".4"/><use xlink:href="#a" transform="matrix(1,0,0,1,20129.372756031273,-12183.749495896976) translate(247.4857777777778 509)"/><use xlink:href="#b" transform="matrix(1,0,0,1,20129.372756031273,-12183.749495896976) translate(189.53466666666674 701)"/><path d="M23395.93-12183.75h1201.63v1145.68h-1201.63z" fill="#00b1ff" fill-opacity=".4"/><use xlink:href="#c" transform="matrix(1,0,0,1,23415.93133009938,-12183.749495896976) translate(268.9555555555556 509)"/><use xlink:href="#b" transform="matrix(1,0,0,1,23415.93133009938,-12183.749495896976) translate(202.53466666666674 701)"/><path d="M20212.28-10427.8h907.36v864.3h-907.36z" fill="#24ca7a" fill-opacity=".4"/><use xlink:href="#d" transform="matrix(1,0,0,1,20232.277439490892,-10427.791295846924) translate(158.06355555555564 464.5)"/><path d="M21712.77-10427.8h907.36v864.3h-907.36z" fill="#24ca7a" fill-opacity=".4"/><use xlink:href="#e" transform="matrix(1,0,0,1,21732.772302706726,-10427.791295846924) translate(295.80888888888893 464.5)"/><path d="M20697-11033.57v275.52l1462.07 24.92 7.28 300.84" stroke="#24ca7a" stroke-width="9" fill="none"/><path d="M20701.47-11033.46h-8.96v-4.6h8.97zM22170.93-10427.8h-8.95l-.1-4.5 8.93-.2z" stroke="#24ca7a" stroke-width=".05" fill="#24ca7a"/><path d="M23543.07-10441h907.36v864.3h-907.36z" fill="#00b1ff" fill-opacity=".4"/><use xlink:href="#f" transform="matrix(1,0,0,1,23563.06567235892,-10440.989099455892) translate(198.18355555555556 464.5)"/><path d="M23996.75-11033.57v588.08" stroke="#00b1ff" stroke-width="9" stroke-linejoin="round" fill="none"/><path d="M24001.22-11033.45h-8.95v-4.62h8.95zM24001.22-10441h-8.95v-4.6h8.95z" stroke="#00b1ff" stroke-width=".05" fill="#00b1ff"/><path d="M18711.78-10441h907.37v864.3h-907.37z" fill="#24ca7a" fill-opacity=".4"/><use xlink:href="#g" transform="matrix(1,0,0,1,18731.782576275058,-10440.989099455892) translate(270.8453333333334 464.5)"/><path d="M20697-11010.9v578.6M20697-11010.8v-4.6" stroke="#24ca7a" stroke-width="9" fill="none"/><path d="M20701.47-10427.8h-8.96v-4.6h8.97z" stroke="#24ca7a" stroke-width=".05" fill="#24ca7a"/><path d="M20697-11033.57v282.12h-1531.54v305.96" stroke="#24ca7a" stroke-width="9" fill="none"/><path d="M20701.47-11033.46h-8.96v-4.6h8.97zM19169.94-10441h-8.95v-4.6h8.94z" stroke="#24ca7a" stroke-width=".05" fill="#24ca7a"/><defs><path fill="#1a1a1a" d="M63-220v92h138v28H63V0H30v-248h175v28H63" id="h"/><path fill="#1a1a1a" d="M114-163C36-179 61-72 57 0H25l-1-190h30c1 12-1 29 2 39 6-27 23-49 58-41v29" id="i"/><path fill="#1a1a1a" d="M100-194c62-1 85 37 85 99 1 63-27 99-86 99S16-35 15-95c0-66 28-99 85-99zM99-20c44 1 53-31 53-75 0-43-8-75-51-75s-53 32-53 75 10 74 51 75" id="j"/><path fill="#1a1a1a" d="M117-194c89-4 53 116 60 194h-32v-121c0-31-8-49-39-48C34-167 62-67 57 0H25l-1-190h30c1 10-1 24 2 32 11-22 29-35 61-36" id="k"/><path fill="#1a1a1a" d="M59-47c-2 24 18 29 38 22v24C64 9 27 4 27-40v-127H5v-23h24l9-43h21v43h35v23H59v120" id="l"/><path fill="#1a1a1a" d="M100-194c63 0 86 42 84 106H49c0 40 14 67 53 68 26 1 43-12 49-29l28 8c-11 28-37 45-77 45C44 4 14-33 15-96c1-61 26-98 85-98zm52 81c6-60-76-77-97-28-3 7-6 17-6 28h103" id="m"/><path fill="#1a1a1a" d="M85-194c31 0 48 13 60 33l-1-100h32l1 261h-30c-2-10 0-23-3-31C134-8 116 4 85 4 32 4 16-35 15-94c0-66 23-100 70-100zm9 24c-40 0-46 34-46 75 0 40 6 74 45 74 42 0 51-32 51-76 0-42-9-74-50-73" id="n"/><g id="a"><use transform="matrix(0.4457777777777777,0,0,0.4444444444444444,0,0)" xlink:href="#h"/><use transform="matrix(0.4457777777777777,0,0,0.4444444444444444,97.62533333333332,0)" xlink:href="#i"/><use transform="matrix(0.4457777777777777,0,0,0.4444444444444444,150.67288888888885,0)" xlink:href="#j"/><use transform="matrix(0.4457777777777777,0,0,0.4444444444444444,239.8284444444444,0)" xlink:href="#k"/><use transform="matrix(0.4457777777777777,0,0,0.4444444444444444,328.9839999999999,0)" xlink:href="#l"/><use transform="matrix(0.4457777777777777,0,0,0.4444444444444444,373.5617777777777,0)" xlink:href="#m"/><use transform="matrix(0.4457777777777777,0,0,0.4444444444444444,462.71733333333333,0)" xlink:href="#k"/><use transform="matrix(0.4457777777777777,0,0,0.4444444444444444,551.8728888888888,0)" xlink:href="#n"/></g><path fill="#1a1a1a" d="M33 0v-248h34V0H33" id="o"/><path fill="#1a1a1a" d="M177-190C167-65 218 103 67 71c-23-6-38-20-44-43l32-5c15 47 100 32 89-28v-30C133-14 115 1 83 1 29 1 15-40 15-95c0-56 16-97 71-98 29-1 48 16 59 35 1-10 0-23 2-32h30zM94-22c36 0 50-32 50-73 0-42-14-75-50-75-39 0-46 34-46 75s6 73 46 73" id="p"/><path fill="#1a1a1a" d="M141-36C126-15 110 5 73 4 37 3 15-17 15-53c-1-64 63-63 125-63 3-35-9-54-41-54-24 1-41 7-42 31l-33-3c5-37 33-52 76-52 45 0 72 20 72 64v82c-1 20 7 32 28 27v20c-31 9-61-2-59-35zM48-53c0 20 12 33 32 33 41-3 63-29 60-74-43 2-92-5-92 41" id="q"/><path fill="#1a1a1a" d="M24-231v-30h32v30H24zM24 0v-190h32V0H24" id="r"/><g id="b"><use transform="matrix(0.4457777777777777,0,0,0.4444444444444444,0,0)" xlink:href="#o"/><use transform="matrix(0.4457777777777777,0,0,0.4444444444444444,44.57777777777777,0)" xlink:href="#k"/><use transform="matrix(0.4457777777777777,0,0,0.4444444444444444,133.7333333333333,0)" xlink:href="#l"/><use transform="matrix(0.4457777777777777,0,0,0.4444444444444444,178.31111111111107,0)" xlink:href="#m"/><use transform="matrix(0.4457777777777777,0,0,0.4444444444444444,267.4666666666666,0)" xlink:href="#p"/><use transform="matrix(0.4457777777777777,0,0,0.4444444444444444,356.62222222222215,0)" xlink:href="#i"/><use transform="matrix(0.4457777777777777,0,0,0.4444444444444444,409.6697777777777,0)" xlink:href="#q"/><use transform="matrix(0.4457777777777777,0,0,0.4444444444444444,498.8253333333332,0)" xlink:href="#l"/><use transform="matrix(0.4457777777777777,0,0,0.4444444444444444,543.403111111111,0)" xlink:href="#r"/><use transform="matrix(0.4457777777777777,0,0,0.4444444444444444,578.6195555555554,0)" xlink:href="#j"/><use transform="matrix(0.4457777777777777,0,0,0.4444444444444444,667.775111111111,0)" xlink:href="#k"/></g><path fill="#1a1a1a" d="M160-131c35 5 61 23 61 61C221 17 115-2 30 0v-248c76 3 177-17 177 60 0 33-19 50-47 57zm-97-11c50-1 110 9 110-42 0-47-63-36-110-37v79zm0 115c55-2 124 14 124-45 0-56-70-42-124-44v89" id="s"/><path fill="#1a1a1a" d="M96-169c-40 0-48 33-48 73s9 75 48 75c24 0 41-14 43-38l32 2c-6 37-31 61-74 61-59 0-76-41-82-99-10-93 101-131 147-64 4 7 5 14 7 22l-32 3c-4-21-16-35-41-35" id="t"/><path fill="#1a1a1a" d="M143 0L79-87 56-68V0H24v-261h32v163l83-92h37l-77 82L181 0h-38" id="u"/><g id="c"><use transform="matrix(0.4457777777777777,0,0,0.4444444444444444,0,0)" xlink:href="#s"/><use transform="matrix(0.4457777777777777,0,0,0.4444444444444444,106.98666666666665,0)" xlink:href="#q"/><use transform="matrix(0.4457777777777777,0,0,0.4444444444444444,196.1422222222222,0)" xlink:href="#t"/><use transform="matrix(0.4457777777777777,0,0,0.4444444444444444,276.3822222222222,0)" xlink:href="#u"/><use transform="matrix(0.4457777777777777,0,0,0.4444444444444444,356.6222222222222,0)" xlink:href="#m"/><use transform="matrix(0.4457777777777777,0,0,0.4444444444444444,445.7777777777777,0)" xlink:href="#k"/><use transform="matrix(0.4457777777777777,0,0,0.4444444444444444,534.9333333333333,0)" xlink:href="#n"/></g><path fill="#1a1a1a" d="M205 0l-28-72H64L36 0H1l101-248h38L239 0h-34zm-38-99l-47-123c-12 45-31 82-46 123h93" id="v"/><g id="d"><use transform="matrix(0.4457777777777777,0,0,0.4444444444444444,0,0)" xlink:href="#v"/><use transform="matrix(0.4457777777777777,0,0,0.4444444444444444,106.98666666666665,0)" xlink:href="#k"/><use transform="matrix(0.4457777777777777,0,0,0.4444444444444444,196.1422222222222,0)" xlink:href="#n"/><use transform="matrix(0.4457777777777777,0,0,0.4444444444444444,285.2977777777777,0)" xlink:href="#i"/><use transform="matrix(0.4457777777777777,0,0,0.4444444444444444,338.34533333333326,0)" xlink:href="#j"/><use transform="matrix(0.4457777777777777,0,0,0.4444444444444444,427.50088888888877,0)" xlink:href="#r"/><use transform="matrix(0.4457777777777777,0,0,0.4444444444444444,462.7173333333332,0)" xlink:href="#n"/></g><path fill="#1a1a1a" d="M140-251c81 0 123 46 123 126C263-46 219 4 140 4 59 4 17-45 17-125s42-126 123-126zm0 227c63 0 89-41 89-101s-29-99-89-99c-61 0-89 39-89 99S79-25 140-24" id="w"/><path fill="#1a1a1a" d="M185-189c-5-48-123-54-124 2 14 75 158 14 163 119 3 78-121 87-175 55-17-10-28-26-33-46l33-7c5 56 141 63 141-1 0-78-155-14-162-118-5-82 145-84 179-34 5 7 8 16 11 25" id="x"/><g id="e"><use transform="matrix(0.4457777777777777,0,0,0.4444444444444444,0,0)" xlink:href="#o"/><use transform="matrix(0.4457777777777777,0,0,0.4444444444444444,44.57777777777777,0)" xlink:href="#w"/><use transform="matrix(0.4457777777777777,0,0,0.4444444444444444,169.39555555555552,0)" xlink:href="#x"/></g><path fill="#1a1a1a" d="M108 0H70L1-190h34L89-25l56-165h34" id="y"/><g id="f"><use transform="matrix(0.4457777777777777,0,0,0.4444444444444444,0,0)" xlink:href="#x"/><use transform="matrix(0.4457777777777777,0,0,0.4444444444444444,106.98666666666665,0)" xlink:href="#m"/><use transform="matrix(0.4457777777777777,0,0,0.4444444444444444,196.1422222222222,0)" xlink:href="#i"/><use transform="matrix(0.4457777777777777,0,0,0.4444444444444444,249.18977777777778,0)" xlink:href="#y"/><use transform="matrix(0.4457777777777777,0,0,0.4444444444444444,329.42977777777776,0)" xlink:href="#m"/><use transform="matrix(0.4457777777777777,0,0,0.4444444444444444,418.5853333333333,0)" xlink:href="#i"/></g><path fill="#1a1a1a" d="M266 0h-40l-56-210L115 0H75L2-248h35L96-30l15-64 43-154h32l59 218 59-218h35" id="z"/><path fill="#1a1a1a" d="M115-194c53 0 69 39 70 98 0 66-23 100-70 100C84 3 66-7 56-30L54 0H23l1-261h32v101c10-23 28-34 59-34zm-8 174c40 0 45-34 45-75 0-40-5-75-45-74-42 0-51 32-51 76 0 43 10 73 51 73" id="A"/><g id="g"><use transform="matrix(0.4457777777777777,0,0,0.4444444444444444,0,0)" xlink:href="#z"/><use transform="matrix(0.4457777777777777,0,0,0.4444444444444444,147.9982222222222,0)" xlink:href="#m"/><use transform="matrix(0.4457777777777777,0,0,0.4444444444444444,237.15377777777778,0)" xlink:href="#A"/></g></defs></g></svg>